<svg xmlns="http://www.w3.org/2000/svg" xmlns:xlink="http://www.w3.org/1999/xlink" width="173" zoomAndPan="magnify" viewBox="0 0 129.75 30.000001" height="40" preserveAspectRatio="xMidYMid meet" version="1.0"><defs><g/><clipPath id="bc7ea36fe2"><path d="M 59 5.226562 L 94.140625 5.226562 L 94.140625 26 L 59 26 Z M 59 5.226562 " clip-rule="nonzero"/></clipPath><clipPath id="098b2661be"><path d="M 76.152344 22.390625 L 82.457031 22.390625 L 82.457031 28.453125 L 76.152344 28.453125 Z M 76.152344 22.390625 " clip-rule="nonzero"/></clipPath><clipPath id="9e559172e1"><path d="M 58.578125 15 L 64 15 L 64 19 L 58.578125 19 Z M 58.578125 15 " clip-rule="nonzero"/></clipPath><clipPath id="e5fab8fdaf"><path d="M 80.230469 7.199219 L 93 7.199219 L 93 20.988281 L 80.230469 20.988281 Z M 80.230469 7.199219 " clip-rule="nonzero"/></clipPath><clipPath id="01972f1ad3"><path d="M 93.890625 5.226562 L 101 5.226562 L 101 26 L 93.890625 26 Z M 93.890625 5.226562 " clip-rule="nonzero"/></clipPath><clipPath id="2812b164ca"><path d="M 97.355469 9.46875 L 111.859375 9.46875 L 111.859375 24.984375 L 97.355469 24.984375 Z M 97.355469 9.46875 " clip-rule="nonzero"/></clipPath><clipPath id="dcbc5ebe2d"><path d="M 100.746094 22.390625 L 107.054688 22.390625 L 107.054688 28.453125 L 100.746094 28.453125 Z M 100.746094 22.390625 " clip-rule="nonzero"/></clipPath><clipPath id="372e2a4552"><path d="M 24.902344 21.847656 L 29.421875 21.847656 L 29.421875 24.105469 L 24.902344 24.105469 Z M 24.902344 21.847656 " clip-rule="nonzero"/></clipPath><clipPath id="8a0516eb2f"><path d="M 28.292969 21.847656 C 28.914062 21.847656 29.421875 22.351562 29.421875 22.976562 C 29.421875 23.601562 28.914062 24.105469 28.292969 24.105469 L 26.03125 24.105469 C 25.40625 24.105469 24.902344 23.601562 24.902344 22.976562 C 24.902344 22.351562 25.40625 21.847656 26.03125 21.847656 Z M 28.292969 21.847656 " clip-rule="nonzero"/></clipPath><clipPath id="be179629a4"><path d="M 17.625 15.972656 L 22.144531 15.972656 L 22.144531 18.230469 L 17.625 18.230469 Z M 17.625 15.972656 " clip-rule="nonzero"/></clipPath><clipPath id="5122eef135"><path d="M 21.015625 15.972656 C 21.636719 15.972656 22.144531 16.476562 22.144531 17.101562 C 22.144531 17.726562 21.636719 18.230469 21.015625 18.230469 L 18.753906 18.230469 C 18.132812 18.230469 17.625 17.726562 17.625 17.101562 C 17.625 16.476562 18.132812 15.972656 18.753906 15.972656 Z M 21.015625 15.972656 " clip-rule="nonzero"/></clipPath><clipPath id="1c18d31440"><path d="M 34.3125 0.464844 L 38.628906 0.464844 L 38.628906 2.625 L 34.3125 2.625 Z M 34.3125 0.464844 " clip-rule="nonzero"/></clipPath><clipPath id="dcd1cbf5e2"><path d="M 37.550781 0.464844 C 38.144531 0.464844 38.628906 0.949219 38.628906 1.546875 C 38.628906 2.140625 38.144531 2.625 37.550781 2.625 L 35.390625 2.625 C 34.796875 2.625 34.3125 2.140625 34.3125 1.546875 C 34.3125 0.949219 34.796875 0.464844 35.390625 0.464844 Z M 37.550781 0.464844 " clip-rule="nonzero"/></clipPath><clipPath id="a79d598d7e"><path d="M 32.15625 0.464844 L 36.472656 0.464844 L 36.472656 2.625 L 32.15625 2.625 Z M 32.15625 0.464844 " clip-rule="nonzero"/></clipPath><clipPath id="fd2ade4ef9"><path d="M 35.390625 0.464844 C 35.988281 0.464844 36.472656 0.949219 36.472656 1.546875 C 36.472656 2.140625 35.988281 2.625 35.390625 2.625 L 33.234375 2.625 C 32.636719 2.625 32.15625 2.140625 32.15625 1.546875 C 32.15625 0.949219 32.636719 0.464844 33.234375 0.464844 Z M 35.390625 0.464844 " clip-rule="nonzero"/></clipPath><clipPath id="84480af7c7"><path d="M 25.105469 0.464844 L 29.421875 0.464844 L 29.421875 2.625 L 25.105469 2.625 Z M 25.105469 0.464844 " clip-rule="nonzero"/></clipPath><clipPath id="c25b52bc23"><path d="M 28.339844 0.464844 C 28.9375 0.464844 29.421875 0.949219 29.421875 1.546875 C 29.421875 2.140625 28.9375 2.625 28.339844 2.625 L 26.183594 2.625 C 25.585938 2.625 25.105469 2.140625 25.105469 1.546875 C 25.105469 0.949219 25.585938 0.464844 26.183594 0.464844 Z M 28.339844 0.464844 " clip-rule="nonzero"/></clipPath></defs><g clip-path="url(#bc7ea36fe2)"><path fill="#ff914d" d="M 105.796875 6.519531 L 102.0625 24.074219 C 101.914062 24.78125 101.210938 25.363281 100.5 25.363281 L 83.324219 25.363281 C 83.09375 25.363281 82.933594 25.183594 82.960938 24.953125 C 83.199219 23.152344 81.960938 21.738281 80.148438 21.738281 C 78.339844 21.738281 76.503906 23.148438 75.96875 24.949219 C 75.902344 25.179688 75.664062 25.363281 75.425781 25.363281 L 73.300781 25.363281 C 72.589844 25.363281 72.132812 24.78125 72.285156 24.074219 L 72.574219 22.699219 L 60.820312 22.699219 C 60.183594 22.699219 59.664062 22.183594 59.664062 21.542969 C 59.664062 20.90625 60.183594 20.386719 60.820312 20.386719 L 76.054688 20.386719 C 76.691406 20.386719 77.210938 19.867188 77.210938 19.230469 C 77.210938 18.589844 76.691406 18.070312 76.054688 18.070312 L 67.546875 18.070312 C 66.910156 18.070312 66.390625 17.554688 66.390625 16.914062 C 66.390625 16.277344 66.910156 15.757812 67.546875 15.757812 L 77.039062 15.757812 C 77.675781 15.757812 78.195312 15.238281 78.195312 14.601562 C 78.195312 13.960938 77.675781 13.441406 77.039062 13.441406 L 63.605469 13.441406 C 62.96875 13.441406 62.449219 12.925781 62.449219 12.285156 C 62.449219 11.648438 62.96875 11.128906 63.605469 11.128906 L 78.019531 11.128906 C 78.660156 11.128906 79.179688 10.609375 79.179688 9.972656 C 79.179688 9.332031 78.660156 8.8125 78.019531 8.8125 L 67.546875 8.8125 C 66.910156 8.8125 66.390625 8.296875 66.390625 7.65625 C 66.390625 7.019531 66.910156 6.5 67.546875 6.5 L 76.023438 6.5 C 76.179688 5.796875 76.878906 5.226562 77.582031 5.226562 L 104.777344 5.226562 C 105.492188 5.226562 105.945312 5.804688 105.796875 6.519531 " fill-opacity="1" fill-rule="nonzero"/></g><g clip-path="url(#098b2661be)"><path fill="#ff914d" d="M 78.980469 27.019531 C 78.132812 27.019531 77.585938 26.328125 77.765625 25.476562 C 77.949219 24.628906 78.785156 23.9375 79.636719 23.9375 C 80.488281 23.9375 81.03125 24.628906 80.851562 25.476562 C 80.667969 26.328125 79.832031 27.019531 78.980469 27.019531 Z M 79.960938 22.402344 C 78.265625 22.402344 76.59375 23.78125 76.230469 25.476562 C 75.871094 27.175781 76.957031 28.554688 78.65625 28.554688 C 80.351562 28.554688 82.023438 27.175781 82.386719 25.476562 C 82.746094 23.78125 81.660156 22.402344 79.960938 22.402344 " fill-opacity="1" fill-rule="nonzero"/></g><path fill="#ff914d" d="M 64.652344 7.65625 C 64.652344 8.296875 64.132812 8.8125 63.492188 8.8125 L 61.359375 8.8125 C 60.71875 8.8125 60.199219 8.296875 60.199219 7.65625 C 60.199219 7.019531 60.71875 6.5 61.359375 6.5 L 63.492188 6.5 C 64.132812 6.5 64.652344 7.019531 64.652344 7.65625 " fill-opacity="1" fill-rule="nonzero"/><g clip-path="url(#9e559172e1)"><path fill="#ff914d" d="M 63.046875 16.914062 C 63.046875 17.554688 62.527344 18.070312 61.890625 18.070312 L 59.75 18.070312 C 59.113281 18.070312 58.59375 17.554688 58.59375 16.914062 C 58.59375 16.277344 59.113281 15.757812 59.75 15.757812 L 61.890625 15.757812 C 62.527344 15.757812 63.046875 16.277344 63.046875 16.914062 " fill-opacity="1" fill-rule="nonzero"/></g><g clip-path="url(#e5fab8fdaf)"><path fill="#f45d00" d="M 89.914062 18.210938 C 89.914062 18.785156 84.960938 18.789062 84.289062 18.789062 C 83.472656 18.789062 83.476562 17.550781 82.523438 17.550781 C 82.289062 17.550781 82.066406 17.546875 81.847656 17.546875 C 81.207031 17.589844 80.824219 18.203125 81.183594 18.644531 C 81.539062 19.082031 81.925781 19.050781 82.445312 19.136719 C 83.59375 19.332031 84.84375 20.441406 86.476562 20.554688 C 88.3125 20.683594 90.054688 20.414062 91.152344 19.355469 C 92.578125 17.992188 91.835938 16.8125 92.429688 14.605469 C 93.277344 11.429688 91.289062 7.761719 86.476562 8.65625 C 84.46875 9.027344 82.609375 8.417969 81.59375 9.929688 C 80.613281 11.390625 81.960938 11.824219 82.234375 11.828125 L 82.933594 11.839844 C 83.125 11.839844 83.226562 11.757812 83.597656 11.273438 C 84.941406 9.503906 89.976562 10.390625 89.976562 12.285156 C 89.976562 14.179688 84.941406 15.066406 83.597656 13.296875 C 83.226562 12.808594 83.125 12.730469 82.933594 12.730469 C 82.703125 12.734375 82.703125 12.734375 82.246094 12.742188 C 81.792969 12.75 80.796875 12.882812 80.691406 13.644531 C 80.683594 13.707031 80.632812 13.96875 80.628906 14.035156 C 80.628906 14.277344 80.585938 14.386719 80.527344 14.605469 C 80.429688 14.964844 80.503906 15.195312 80.3125 15.632812 C 80.121094 16.074219 80.703125 16.679688 81.222656 16.679688 C 81.742188 16.679688 82.0625 16.679688 82.523438 16.679688 C 83.476562 16.679688 83.472656 15.4375 84.289062 15.4375 C 84.960938 15.4375 89.914062 15.441406 89.914062 16.015625 C 89.914062 16.082031 89.8125 16.1875 89.613281 16.1875 L 86.558594 16.1875 C 86.117188 16.183594 85.78125 16.199219 85.78125 16.492188 C 85.78125 16.78125 86.382812 16.757812 86.570312 16.757812 C 86.617188 16.757812 89.539062 16.890625 89.582031 16.894531 C 89.824219 16.910156 89.976562 16.953125 89.976562 17.113281 C 89.976562 17.273438 89.824219 17.339844 89.582031 17.359375 C 89.539062 17.359375 86.617188 17.46875 86.570312 17.46875 C 86.382812 17.46875 85.78125 17.445312 85.78125 17.734375 C 85.78125 18.027344 86.117188 18.042969 86.558594 18.039062 L 89.613281 18.039062 C 89.8125 18.039062 89.914062 18.144531 89.914062 18.210938 Z M 86.835938 7.613281 C 86.816406 7.875 86.796875 7.984375 87.101562 8.066406 C 87.40625 8.152344 87.964844 8.144531 87.960938 7.867188 C 87.960938 7.589844 87.746094 7.199219 87.246094 7.296875 C 86.953125 7.351562 86.855469 7.355469 86.835938 7.613281 Z M 84.28125 8.117188 C 84.328125 8.328125 84.96875 8.34375 85.277344 8.320312 C 85.589844 8.296875 86.664062 8.273438 86.4375 7.753906 C 86.210938 7.234375 85.9375 7.277344 85.480469 7.507812 C 85.21875 7.640625 84.230469 7.902344 84.28125 8.117188 Z M 83.964844 20.71875 C 84.054688 20.519531 83.882812 20.296875 83.617188 20.132812 C 83.351562 19.96875 82.472656 19.355469 82.347656 19.910156 C 82.226562 20.460938 82.59375 20.804688 83.097656 20.886719 C 83.386719 20.933594 83.878906 20.917969 83.964844 20.71875 " fill-opacity="1" fill-rule="evenodd"/></g><g clip-path="url(#01972f1ad3)"><path fill="#ff914d" d="M 100.613281 6.519531 L 96.878906 24.074219 C 96.730469 24.78125 96.027344 25.363281 95.316406 25.363281 L 78.140625 25.363281 C 77.910156 25.363281 77.75 25.183594 77.777344 24.953125 C 78.015625 23.152344 76.777344 21.738281 74.964844 21.738281 C 73.15625 21.738281 71.320312 23.148438 70.785156 24.949219 C 70.71875 25.179688 70.480469 25.363281 70.242188 25.363281 L 68.117188 25.363281 C 67.40625 25.363281 66.949219 24.78125 67.101562 24.074219 L 67.390625 22.699219 L 55.636719 22.699219 C 55 22.699219 54.480469 22.183594 54.480469 21.542969 C 54.480469 20.90625 55 20.386719 55.636719 20.386719 L 70.871094 20.386719 C 71.507812 20.386719 72.027344 19.867188 72.027344 19.230469 C 72.027344 18.589844 71.507812 18.070312 70.871094 18.070312 L 62.363281 18.070312 C 61.726562 18.070312 61.207031 17.554688 61.207031 16.914062 C 61.207031 16.277344 61.726562 15.757812 62.363281 15.757812 L 71.855469 15.757812 C 72.492188 15.757812 73.011719 15.238281 73.011719 14.601562 C 73.011719 13.960938 72.492188 13.441406 71.855469 13.441406 L 58.421875 13.441406 C 57.785156 13.441406 57.265625 12.925781 57.265625 12.285156 C 57.265625 11.648438 57.785156 11.128906 58.421875 11.128906 L 72.835938 11.128906 C 73.476562 11.128906 73.996094 10.609375 73.996094 9.972656 C 73.996094 9.332031 73.476562 8.8125 72.835938 8.8125 L 62.363281 8.8125 C 61.726562 8.8125 61.207031 8.296875 61.207031 7.65625 C 61.207031 7.019531 61.726562 6.5 62.363281 6.5 L 70.839844 6.5 C 70.996094 5.796875 71.695312 5.226562 72.398438 5.226562 L 99.59375 5.226562 C 100.308594 5.226562 100.761719 5.804688 100.613281 6.519531 " fill-opacity="1" fill-rule="nonzero"/></g><g clip-path="url(#2812b164ca)"><path fill="#ff914d" d="M 111.316406 16.277344 L 110.757812 15.742188 C 110.660156 15.648438 110.570312 15.539062 110.496094 15.414062 L 107.214844 10.023438 C 107 9.671875 106.613281 9.472656 106.15625 9.472656 L 101.0625 9.472656 C 100.765625 9.472656 100.472656 9.714844 100.410156 10.011719 L 97.382812 24.253906 C 97.296875 24.652344 97.550781 24.976562 97.953125 24.976562 L 100.554688 24.976562 L 100.585938 24.875 C 101.15625 23.085938 102.941406 21.738281 104.742188 21.738281 C 106.546875 21.738281 107.757812 23.085938 107.566406 24.875 L 107.554688 24.976562 L 108.824219 24.976562 C 109.660156 24.976562 110.488281 24.296875 110.667969 23.457031 L 111.808594 18.089844 C 111.957031 17.378906 111.777344 16.71875 111.316406 16.277344 " fill-opacity="1" fill-rule="nonzero"/></g><g clip-path="url(#dcbc5ebe2d)"><path fill="#ff914d" d="M 103.578125 27.019531 C 102.726562 27.019531 102.183594 26.328125 102.363281 25.476562 C 102.542969 24.628906 103.382812 23.9375 104.230469 23.9375 C 105.082031 23.9375 105.625 24.628906 105.445312 25.476562 C 105.265625 26.328125 104.425781 27.019531 103.578125 27.019531 Z M 104.558594 22.402344 C 102.863281 22.402344 101.1875 23.78125 100.828125 25.476562 C 100.464844 27.175781 101.554688 28.554688 103.25 28.554688 C 104.945312 28.554688 106.621094 27.175781 106.980469 25.476562 C 107.339844 23.78125 106.253906 22.402344 104.558594 22.402344 " fill-opacity="1" fill-rule="nonzero"/></g><path fill="#f45d00" d="M 105.480469 10.859375 L 102.511719 10.859375 C 102.015625 10.859375 101.53125 11.257812 101.425781 11.753906 L 100.609375 15.597656 C 100.503906 16.089844 100.820312 16.492188 101.3125 16.492188 L 106.808594 16.492188 C 107.519531 16.492188 108.113281 15.699219 107.847656 15.105469 L 106.140625 11.261719 C 106.027344 11.011719 105.78125 10.859375 105.480469 10.859375 " fill-opacity="1" fill-rule="nonzero"/><g fill="#ff914d" fill-opacity="1"><g transform="translate(31.150677, 24.180531)"><g><path d="M 3.703125 -7.921875 C 4.097656 -7.921875 4.460938 -7.847656 4.796875 -7.703125 C 5.128906 -7.554688 5.414062 -7.351562 5.65625 -7.09375 C 5.90625 -6.84375 6.097656 -6.550781 6.234375 -6.21875 C 6.378906 -5.894531 6.453125 -5.546875 6.453125 -5.171875 L 6.453125 -2.78125 C 6.453125 -2.40625 6.378906 -2.050781 6.234375 -1.71875 C 6.097656 -1.394531 5.90625 -1.101562 5.65625 -0.84375 C 5.414062 -0.59375 5.128906 -0.394531 4.796875 -0.25 C 4.460938 -0.101562 4.097656 -0.03125 3.703125 -0.03125 L 1.046875 -0.03125 C 0.835938 -0.03125 0.664062 -0.101562 0.53125 -0.25 C 0.394531 -0.40625 0.328125 -0.570312 0.328125 -0.75 L 0.328125 -7.203125 C 0.328125 -7.390625 0.394531 -7.554688 0.53125 -7.703125 C 0.664062 -7.847656 0.835938 -7.921875 1.046875 -7.921875 Z M 4.03125 -3.734375 L 4.03125 -4.203125 C 4.03125 -4.421875 3.960938 -4.597656 3.828125 -4.734375 C 3.691406 -4.867188 3.519531 -4.9375 3.3125 -4.9375 L 2.84375 -4.9375 C 2.8125 -4.9375 2.78125 -4.921875 2.75 -4.890625 C 2.71875 -4.859375 2.703125 -4.8125 2.703125 -4.75 L 2.703125 -3.203125 C 2.703125 -3.140625 2.71875 -3.09375 2.75 -3.0625 C 2.78125 -3.039062 2.8125 -3.03125 2.84375 -3.03125 L 3.3125 -3.03125 C 3.519531 -3.03125 3.691406 -3.09375 3.828125 -3.21875 C 3.960938 -3.351562 4.03125 -3.523438 4.03125 -3.734375 Z M 4.03125 -3.734375 "/></g></g></g><g fill="#ff914d" fill-opacity="1"><g transform="translate(37.850036, 24.180531)"><g><path d="M 1.03125 0.015625 C 0.84375 0.015625 0.675781 -0.0546875 0.53125 -0.203125 C 0.394531 -0.347656 0.328125 -0.515625 0.328125 -0.703125 L 0.328125 -7.21875 C 0.328125 -7.425781 0.394531 -7.59375 0.53125 -7.71875 C 0.675781 -7.851562 0.84375 -7.921875 1.03125 -7.921875 L 2.265625 -7.921875 C 2.472656 -7.921875 2.640625 -7.851562 2.765625 -7.71875 C 2.898438 -7.59375 2.96875 -7.425781 2.96875 -7.21875 L 2.96875 -0.703125 C 2.96875 -0.515625 2.898438 -0.347656 2.765625 -0.203125 C 2.640625 -0.0546875 2.472656 0.015625 2.265625 0.015625 Z M 1.03125 0.015625 "/></g></g></g><g fill="#ff914d" fill-opacity="1"><g transform="translate(41.150162, 24.180531)"><g><path d="M 3.46875 -8.28125 C 3.976562 -8.28125 4.410156 -8.222656 4.765625 -8.109375 C 5.117188 -7.992188 5.410156 -7.847656 5.640625 -7.671875 C 5.867188 -7.503906 6.046875 -7.320312 6.171875 -7.125 C 6.304688 -6.925781 6.40625 -6.738281 6.46875 -6.5625 C 6.53125 -6.382812 6.570312 -6.238281 6.59375 -6.125 C 6.613281 -6.050781 6.601562 -5.988281 6.5625 -5.9375 C 6.53125 -5.894531 6.488281 -5.867188 6.4375 -5.859375 L 4.015625 -5.53125 C 3.898438 -5.53125 3.820312 -5.585938 3.78125 -5.703125 C 3.738281 -5.828125 3.660156 -5.921875 3.546875 -5.984375 C 3.429688 -6.046875 3.335938 -6.078125 3.265625 -6.078125 C 3.148438 -6.078125 3.03125 -6.03125 2.90625 -5.9375 C 2.78125 -5.851562 2.71875 -5.71875 2.71875 -5.53125 C 2.71875 -5.375 2.757812 -5.253906 2.84375 -5.171875 C 2.9375 -5.097656 3.039062 -5.050781 3.15625 -5.03125 C 3.28125 -5.007812 3.382812 -5 3.46875 -5 C 3.632812 -5 3.847656 -4.992188 4.109375 -4.984375 C 4.367188 -4.984375 4.644531 -4.953125 4.9375 -4.890625 C 5.238281 -4.828125 5.519531 -4.710938 5.78125 -4.546875 C 6.039062 -4.378906 6.253906 -4.128906 6.421875 -3.796875 C 6.585938 -3.472656 6.671875 -3.039062 6.671875 -2.5 C 6.671875 -1.957031 6.582031 -1.5 6.40625 -1.125 C 6.226562 -0.757812 6 -0.46875 5.71875 -0.25 C 5.4375 -0.0390625 5.128906 0.109375 4.796875 0.203125 C 4.472656 0.304688 4.15625 0.359375 3.84375 0.359375 C 3.21875 0.359375 2.695312 0.296875 2.28125 0.171875 C 1.875 0.046875 1.535156 -0.117188 1.265625 -0.328125 C 0.992188 -0.535156 0.78125 -0.769531 0.625 -1.03125 C 0.46875 -1.300781 0.335938 -1.578125 0.234375 -1.859375 C 0.148438 -2.015625 0.1875 -2.109375 0.34375 -2.140625 L 2.984375 -2.453125 C 3.054688 -2.472656 3.109375 -2.472656 3.140625 -2.453125 C 3.171875 -2.429688 3.191406 -2.398438 3.203125 -2.359375 C 3.253906 -2.160156 3.332031 -2.035156 3.4375 -1.984375 C 3.550781 -1.929688 3.648438 -1.90625 3.734375 -1.90625 C 3.867188 -1.90625 3.992188 -1.957031 4.109375 -2.0625 C 4.222656 -2.164062 4.28125 -2.296875 4.28125 -2.453125 C 4.28125 -2.617188 4.222656 -2.75 4.109375 -2.84375 C 3.992188 -2.9375 3.851562 -2.984375 3.6875 -2.984375 L 3.09375 -2.984375 C 2.539062 -2.984375 2.039062 -3.085938 1.59375 -3.296875 C 1.15625 -3.503906 0.804688 -3.8125 0.546875 -4.21875 C 0.296875 -4.625 0.171875 -5.117188 0.171875 -5.703125 C 0.171875 -6.160156 0.242188 -6.539062 0.390625 -6.84375 C 0.546875 -7.15625 0.742188 -7.40625 0.984375 -7.59375 C 1.234375 -7.78125 1.492188 -7.921875 1.765625 -8.015625 C 2.046875 -8.117188 2.3125 -8.1875 2.5625 -8.21875 C 2.8125 -8.25 3.019531 -8.265625 3.1875 -8.265625 C 3.351562 -8.273438 3.445312 -8.28125 3.46875 -8.28125 Z M 3.46875 -8.28125 "/></g></g></g><g fill="#ff914d" fill-opacity="1"><g transform="translate(47.988263, 24.180531)"><g><path d="M 5.90625 -7.953125 C 6.125 -7.953125 6.300781 -7.878906 6.4375 -7.734375 C 6.582031 -7.597656 6.65625 -7.425781 6.65625 -7.21875 L 6.65625 -0.71875 C 6.65625 -0.519531 6.582031 -0.347656 6.4375 -0.203125 C 6.300781 -0.0546875 6.125 0.015625 5.90625 0.015625 L 4.671875 0.015625 C 4.460938 0.015625 4.285156 -0.0546875 4.140625 -0.203125 C 4.003906 -0.347656 3.9375 -0.519531 3.9375 -0.71875 L 3.9375 -2.484375 C 3.9375 -2.535156 3.898438 -2.578125 3.828125 -2.609375 L 3.15625 -2.609375 C 3.082031 -2.585938 3.046875 -2.546875 3.046875 -2.484375 L 3.046875 -0.71875 C 3.046875 -0.519531 2.972656 -0.347656 2.828125 -0.203125 C 2.679688 -0.0546875 2.507812 0.015625 2.3125 0.015625 L 1.0625 0.015625 C 0.851562 0.015625 0.675781 -0.0546875 0.53125 -0.203125 C 0.394531 -0.347656 0.328125 -0.519531 0.328125 -0.71875 L 0.328125 -7.21875 C 0.328125 -7.425781 0.394531 -7.597656 0.53125 -7.734375 C 0.675781 -7.878906 0.851562 -7.953125 1.0625 -7.953125 L 2.3125 -7.953125 C 2.507812 -7.953125 2.679688 -7.878906 2.828125 -7.734375 C 2.972656 -7.597656 3.046875 -7.425781 3.046875 -7.21875 L 3.046875 -5.453125 C 3.054688 -5.378906 3.09375 -5.335938 3.15625 -5.328125 L 3.828125 -5.328125 C 3.898438 -5.335938 3.9375 -5.378906 3.9375 -5.453125 L 3.9375 -7.21875 C 3.9375 -7.425781 4.003906 -7.597656 4.140625 -7.734375 C 4.285156 -7.878906 4.460938 -7.953125 4.671875 -7.953125 Z M 5.90625 -7.953125 "/></g></g></g><path stroke-linecap="butt" transform="matrix(0.345834, 0, 0, 0.345834, 17.625737, 17.707904)" fill="none" stroke-linejoin="miter" d="M 50.814855 -4.904628 C 51.944372 -4.904628 52.983528 -4.69002 53.943618 -4.260803 C 54.915003 -3.842881 55.750846 -3.266828 56.462442 -2.543937 C 57.185333 -1.821045 57.750091 -0.985203 58.145422 -0.0251128 C 58.552049 0.923682 58.744067 1.951543 58.744067 3.035879 L 58.744067 9.948526 C 58.744067 11.032862 58.552049 12.049428 58.145422 13.009518 C 57.750091 13.969607 57.185333 14.816745 56.462442 15.550932 C 55.750846 16.285118 54.915003 16.861172 53.943618 17.290388 C 52.983528 17.70831 51.944372 17.911623 50.814855 17.911623 L 43.100251 17.911623 C 42.512902 17.911623 42.015914 17.697015 41.620583 17.256503 C 41.236547 16.815991 41.033234 16.341594 41.033234 15.822016 L 41.033234 -2.837611 C 41.033234 -3.368484 41.236547 -3.842881 41.620583 -4.260803 C 42.015914 -4.69002 42.512902 -4.904628 43.100251 -4.904628 Z M 51.752354 7.192503 L 51.752354 5.814492 C 51.752354 5.204553 51.560336 4.707565 51.165005 4.312234 C 50.780969 3.916903 50.283982 3.724885 49.696633 3.724885 L 48.318621 3.724885 C 48.22826 3.724885 48.126603 3.770066 48.047537 3.860427 C 47.957176 3.939493 47.911995 4.075035 47.911995 4.267053 L 47.911995 8.739942 C 47.911995 8.920665 47.957176 9.044912 48.047537 9.123978 C 48.126603 9.191749 48.22826 9.23693 48.318621 9.23693 L 49.696633 9.23693 C 50.283982 9.23693 50.780969 9.044912 51.165005 8.660876 C 51.560336 8.27684 51.752354 7.791147 51.752354 7.192503 Z M 62.448884 18.024575 C 61.89542 18.024575 61.409728 17.821262 61.014397 17.40334 C 60.60777 16.974124 60.404457 16.499726 60.404457 15.968853 L 60.404457 -2.860201 C 60.404457 -3.481436 60.60777 -3.978424 61.014397 -4.351164 C 61.409728 -4.7352 61.89542 -4.927218 62.448884 -4.927218 L 65.995568 -4.927218 C 66.616803 -4.927218 67.11379 -4.7352 67.486531 -4.351164 C 67.870567 -3.978424 68.062585 -3.481436 68.062585 -2.860201 L 68.062585 15.968853 C 68.062585 16.499726 67.870567 16.974124 67.486531 17.40334 C 67.11379 17.821262 66.616803 18.024575 65.995568 18.024575 Z M 79.041494 -5.955079 C 80.509866 -5.955079 81.752335 -5.796947 82.780196 -5.469387 C 83.796762 -5.141826 84.6439 -4.7352 85.310315 -4.226917 C 85.988026 -3.718635 86.507604 -3.176466 86.891639 -2.611708 C 87.275675 -2.035654 87.558055 -1.48219 87.738777 -0.973907 C 87.9195 -0.454329 88.043747 -0.0477031 88.100223 0.257267 C 88.134109 0.471875 88.100223 0.652598 88.009862 0.799435 C 87.908205 0.934977 87.783958 1.014043 87.637121 1.036634 L 80.611523 2.008018 C 80.283963 2.008018 80.069355 1.838591 79.956403 1.522326 C 79.820861 1.13829 79.594957 0.855911 79.267397 0.675188 C 78.939837 0.494465 78.668753 0.404104 78.44285 0.404104 C 78.126585 0.404104 77.787729 0.528351 77.414989 0.799435 C 77.042248 1.047929 76.861525 1.454555 76.861525 2.008018 C 76.861525 2.471121 76.985772 2.809976 77.245561 3.024584 C 77.50535 3.250488 77.81032 3.38603 78.149175 3.465096 C 78.48803 3.521572 78.793 3.555457 79.041494 3.555457 C 79.515891 3.555457 80.137126 3.566752 80.905197 3.566752 C 81.673269 3.578048 82.475227 3.679704 83.322365 3.860427 C 84.169503 4.04115 84.97146 4.380005 85.728237 4.854402 C 86.485013 5.340095 87.106248 6.062986 87.580645 7.01178 C 88.055042 7.94928 88.303536 9.203044 88.303536 10.750483 C 88.303536 12.320512 88.043747 13.630752 87.535464 14.703794 C 87.027182 15.776835 86.372061 16.623973 85.558809 17.256503 C 84.745556 17.889033 83.864533 18.34084 82.904443 18.611924 C 81.955649 18.894303 81.029444 19.029845 80.12583 19.029845 C 78.329898 19.029845 76.82764 18.849122 75.630351 18.498972 C 74.421768 18.148822 73.439088 17.663129 72.659721 17.05319 C 71.891649 16.44325 71.270414 15.754245 70.818607 14.986173 C 70.355505 14.229396 69.982764 13.438734 69.68909 12.614187 C 69.451891 12.173675 69.542253 11.902591 69.982764 11.812229 L 77.663483 10.886025 C 77.878091 10.852139 78.024928 10.863435 78.103994 10.931206 C 78.194356 10.976386 78.250832 11.066748 78.296012 11.1797 C 78.44285 11.755753 78.680048 12.105904 78.996313 12.252741 C 79.312578 12.399578 79.583662 12.467349 79.809566 12.467349 C 80.216192 12.467349 80.577637 12.320512 80.893902 12.026838 C 81.221462 11.721868 81.39089 11.349127 81.39089 10.886025 C 81.39089 10.411628 81.221462 10.038887 80.882607 9.779098 C 80.555047 9.508014 80.148421 9.372472 79.674023 9.372472 L 77.945862 9.372472 C 76.341947 9.372472 74.896165 9.067502 73.61981 8.457563 C 72.343456 7.847623 71.338185 6.955305 70.592704 5.780606 C 69.858518 4.605908 69.497072 3.182717 69.497072 1.522326 C 69.497072 0.1782 69.71168 -0.928727 70.152192 -1.821045 C 70.592704 -2.702069 71.168758 -3.42496 71.869058 -3.967128 C 72.580654 -4.509297 73.337431 -4.927218 74.139388 -5.209598 C 74.941346 -5.503272 75.709418 -5.69529 76.432309 -5.785651 C 77.1552 -5.876013 77.765139 -5.932489 78.239536 -5.943784 C 78.713934 -5.955079 78.985018 -5.955079 79.041494 -5.955079 Z M 105.890122 -5.01758 C 106.500061 -5.01758 107.008344 -4.802971 107.426265 -4.396345 C 107.832891 -3.989719 108.0475 -3.481436 108.0475 -2.894087 L 108.0475 15.912377 C 108.0475 16.499726 107.832891 17.008009 107.426265 17.425931 C 107.008344 17.843852 106.500061 18.05846 105.890122 18.05846 L 102.275666 18.05846 C 101.688317 18.05846 101.180034 17.843852 100.773408 17.425931 C 100.366782 17.008009 100.163469 16.499726 100.163469 15.912377 L 100.163469 10.829549 C 100.163469 10.660122 100.061812 10.535875 99.869794 10.468104 L 97.893139 10.468104 C 97.701121 10.524579 97.599464 10.648826 97.576874 10.829549 L 97.576874 15.912377 C 97.576874 16.499726 97.373561 17.008009 96.955639 17.425931 C 96.549013 17.843852 96.052025 18.05846 95.453381 18.05846 L 91.850221 18.05846 C 91.251577 18.05846 90.754589 17.843852 90.336667 17.425931 C 89.930041 17.008009 89.726728 16.499726 89.726728 15.912377 L 89.726728 -2.894087 C 89.726728 -3.481436 89.930041 -3.989719 90.336667 -4.396345 C 90.754589 -4.802971 91.251577 -5.01758 91.850221 -5.01758 L 95.453381 -5.01758 C 96.052025 -5.01758 96.549013 -4.802971 96.955639 -4.396345 C 97.373561 -3.989719 97.576874 -3.481436 97.576874 -2.894087 L 97.576874 2.233922 C 97.622054 2.42594 97.723711 2.538892 97.893139 2.584072 L 99.869794 2.584072 C 100.061812 2.538892 100.163469 2.414645 100.163469 2.211332 L 100.163469 -2.894087 C 100.163469 -3.481436 100.366782 -3.989719 100.773408 -4.396345 C 101.180034 -4.802971 101.688317 -5.01758 102.275666 -5.01758 Z M 105.890122 -5.01758 " stroke="#833f00" stroke-width="0.465769" stroke-opacity="1" stroke-miterlimit="4"/><g fill="#f45d00" fill-opacity="1"><g transform="translate(17.511866, 14.425509)"><g><path d="M 3.703125 -7.921875 C 4.097656 -7.921875 4.460938 -7.847656 4.796875 -7.703125 C 5.128906 -7.554688 5.414062 -7.351562 5.65625 -7.09375 C 5.90625 -6.84375 6.097656 -6.550781 6.234375 -6.21875 C 6.378906 -5.894531 6.453125 -5.546875 6.453125 -5.171875 L 6.453125 -2.78125 C 6.453125 -2.40625 6.378906 -2.050781 6.234375 -1.71875 C 6.097656 -1.394531 5.90625 -1.101562 5.65625 -0.84375 C 5.414062 -0.59375 5.128906 -0.394531 4.796875 -0.25 C 4.460938 -0.101562 4.097656 -0.03125 3.703125 -0.03125 L 1.046875 -0.03125 C 0.835938 -0.03125 0.664062 -0.101562 0.53125 -0.25 C 0.394531 -0.40625 0.328125 -0.570312 0.328125 -0.75 L 0.328125 -7.203125 C 0.328125 -7.390625 0.394531 -7.554688 0.53125 -7.703125 C 0.664062 -7.847656 0.835938 -7.921875 1.046875 -7.921875 Z M 4.03125 -3.734375 L 4.03125 -4.203125 C 4.03125 -4.421875 3.960938 -4.597656 3.828125 -4.734375 C 3.691406 -4.867188 3.519531 -4.9375 3.3125 -4.9375 L 2.84375 -4.9375 C 2.8125 -4.9375 2.78125 -4.921875 2.75 -4.890625 C 2.71875 -4.859375 2.703125 -4.8125 2.703125 -4.75 L 2.703125 -3.203125 C 2.703125 -3.140625 2.71875 -3.09375 2.75 -3.0625 C 2.78125 -3.039062 2.8125 -3.03125 2.84375 -3.03125 L 3.3125 -3.03125 C 3.519531 -3.03125 3.691406 -3.09375 3.828125 -3.21875 C 3.960938 -3.351562 4.03125 -3.523438 4.03125 -3.734375 Z M 4.03125 -3.734375 "/></g></g></g><g fill="#f45d00" fill-opacity="1"><g transform="translate(24.211225, 14.425509)"><g><path d="M 1.03125 0.015625 C 0.84375 0.015625 0.675781 -0.0546875 0.53125 -0.203125 C 0.394531 -0.347656 0.328125 -0.515625 0.328125 -0.703125 L 0.328125 -7.21875 C 0.328125 -7.425781 0.394531 -7.59375 0.53125 -7.71875 C 0.675781 -7.851562 0.84375 -7.921875 1.03125 -7.921875 L 2.265625 -7.921875 C 2.472656 -7.921875 2.640625 -7.851562 2.765625 -7.71875 C 2.898438 -7.59375 2.96875 -7.425781 2.96875 -7.21875 L 2.96875 -0.703125 C 2.96875 -0.515625 2.898438 -0.347656 2.765625 -0.203125 C 2.640625 -0.0546875 2.472656 0.015625 2.265625 0.015625 Z M 1.03125 0.015625 "/></g></g></g><g fill="#f45d00" fill-opacity="1"><g transform="translate(27.511351, 14.425509)"><g><path d="M 6.484375 -0.84375 C 6.535156 -0.613281 6.492188 -0.421875 6.359375 -0.265625 C 6.222656 -0.109375 6.0625 -0.03125 5.875 -0.03125 L 4.265625 -0.03125 C 4.097656 -0.03125 3.925781 -0.0976562 3.75 -0.234375 C 3.570312 -0.378906 3.453125 -0.5625 3.390625 -0.78125 L 3.140625 -1.984375 L 3.0625 -2.390625 C 3.0625 -2.429688 3.039062 -2.453125 3 -2.453125 C 2.96875 -2.453125 2.953125 -2.429688 2.953125 -2.390625 L 2.953125 -0.734375 C 2.953125 -0.648438 2.945312 -0.578125 2.9375 -0.515625 C 2.925781 -0.453125 2.875 -0.367188 2.78125 -0.265625 C 2.71875 -0.191406 2.640625 -0.132812 2.546875 -0.09375 C 2.453125 -0.0507812 2.359375 -0.03125 2.265625 -0.03125 L 0.984375 -0.03125 C 0.796875 -0.03125 0.632812 -0.0976562 0.5 -0.234375 C 0.363281 -0.367188 0.296875 -0.53125 0.296875 -0.71875 L 0.296875 -7.03125 C 0.296875 -7.3125 0.363281 -7.523438 0.5 -7.671875 C 0.632812 -7.828125 0.796875 -7.90625 0.984375 -7.90625 L 4.5625 -7.921875 C 4.925781 -7.921875 5.253906 -7.816406 5.546875 -7.609375 C 5.847656 -7.410156 6.082031 -7.128906 6.25 -6.765625 C 6.425781 -6.398438 6.515625 -5.960938 6.515625 -5.453125 C 6.515625 -5.015625 6.445312 -4.632812 6.3125 -4.3125 C 6.1875 -3.988281 6.019531 -3.695312 5.8125 -3.4375 C 5.832031 -3.394531 5.851562 -3.332031 5.875 -3.25 Z M 3.859375 -5.1875 C 3.859375 -5.351562 3.796875 -5.492188 3.671875 -5.609375 C 3.554688 -5.722656 3.421875 -5.78125 3.265625 -5.78125 L 3.078125 -5.78125 C 2.992188 -5.78125 2.953125 -5.738281 2.953125 -5.65625 L 2.953125 -4.59375 C 2.953125 -4.507812 2.992188 -4.46875 3.078125 -4.46875 L 3.265625 -4.46875 C 3.421875 -4.46875 3.554688 -4.523438 3.671875 -4.640625 C 3.796875 -4.753906 3.859375 -4.890625 3.859375 -5.046875 Z M 3.859375 -5.1875 "/></g></g></g><g fill="#f45d00" fill-opacity="1"><g transform="translate(34.359363, 14.425509)"><g><path d="M 3.09375 -5.78125 C 3.070312 -5.78125 3.050781 -5.769531 3.03125 -5.75 C 3.019531 -5.726562 3.015625 -5.710938 3.015625 -5.703125 L 3.015625 -5.046875 C 3.015625 -5.003906 3.039062 -4.984375 3.09375 -4.984375 L 4.546875 -4.984375 C 4.679688 -4.984375 4.789062 -4.9375 4.875 -4.84375 C 4.96875 -4.75 5.015625 -4.632812 5.015625 -4.5 L 5.015625 -3.421875 C 5.015625 -3.296875 4.96875 -3.1875 4.875 -3.09375 C 4.789062 -3 4.679688 -2.953125 4.546875 -2.953125 L 3.09375 -2.953125 C 3.039062 -2.953125 3.015625 -2.925781 3.015625 -2.875 L 3.015625 -2.25 C 3.015625 -2.195312 3.039062 -2.171875 3.09375 -2.171875 L 5.109375 -2.171875 C 5.242188 -2.171875 5.363281 -2.117188 5.46875 -2.015625 C 5.570312 -1.910156 5.625 -1.785156 5.625 -1.640625 L 5.625 -0.53125 C 5.625 -0.382812 5.570312 -0.257812 5.46875 -0.15625 C 5.363281 -0.0625 5.242188 -0.015625 5.109375 -0.015625 L 1.046875 -0.015625 C 0.847656 -0.015625 0.675781 -0.09375 0.53125 -0.25 C 0.394531 -0.40625 0.328125 -0.628906 0.328125 -0.921875 L 0.328125 -7.375 C 0.328125 -7.476562 0.394531 -7.59375 0.53125 -7.71875 C 0.675781 -7.851562 0.847656 -7.921875 1.046875 -7.921875 L 5.109375 -7.921875 C 5.242188 -7.921875 5.363281 -7.867188 5.46875 -7.765625 C 5.570312 -7.671875 5.625 -7.550781 5.625 -7.40625 L 5.625 -6.296875 C 5.625 -6.148438 5.570312 -6.023438 5.46875 -5.921875 C 5.363281 -5.828125 5.242188 -5.78125 5.109375 -5.78125 Z M 3.09375 -5.78125 "/></g></g></g><g fill="#f45d00" fill-opacity="1"><g transform="translate(40.315446, 14.425509)"><g><path d="M 4.203125 -3.140625 L 6.453125 -3.140625 C 6.492188 -3.140625 6.523438 -3.125 6.546875 -3.09375 C 6.578125 -3.0625 6.59375 -3.03125 6.59375 -3 L 6.59375 -2.875 C 6.59375 -2.457031 6.503906 -2.066406 6.328125 -1.703125 C 6.148438 -1.335938 5.910156 -1.019531 5.609375 -0.75 C 5.304688 -0.476562 4.960938 -0.265625 4.578125 -0.109375 C 4.203125 0.046875 3.804688 0.125 3.390625 0.125 C 2.984375 0.125 2.585938 0.046875 2.203125 -0.109375 C 1.816406 -0.265625 1.472656 -0.476562 1.171875 -0.75 C 0.867188 -1.019531 0.625 -1.335938 0.4375 -1.703125 C 0.257812 -2.066406 0.171875 -2.457031 0.171875 -2.875 L 0.171875 -5.125 C 0.171875 -5.53125 0.257812 -5.910156 0.4375 -6.265625 C 0.625 -6.617188 0.867188 -6.925781 1.171875 -7.1875 C 1.472656 -7.457031 1.816406 -7.664062 2.203125 -7.8125 C 2.585938 -7.96875 2.984375 -8.046875 3.390625 -8.046875 C 3.804688 -8.046875 4.203125 -7.96875 4.578125 -7.8125 C 4.960938 -7.664062 5.304688 -7.457031 5.609375 -7.1875 C 5.910156 -6.925781 6.148438 -6.617188 6.328125 -6.265625 C 6.503906 -5.910156 6.59375 -5.53125 6.59375 -5.125 L 6.59375 -4.9375 C 6.59375 -4.90625 6.578125 -4.875 6.546875 -4.84375 C 6.523438 -4.8125 6.492188 -4.796875 6.453125 -4.796875 L 4.203125 -4.796875 C 4.148438 -4.796875 4.109375 -4.8125 4.078125 -4.84375 C 4.054688 -4.875 4.046875 -4.910156 4.046875 -4.953125 L 4.046875 -5 C 4.046875 -5.09375 4.019531 -5.1875 3.96875 -5.28125 C 3.914062 -5.375 3.851562 -5.441406 3.78125 -5.484375 C 3.59375 -5.585938 3.421875 -5.617188 3.265625 -5.578125 C 3.109375 -5.546875 2.976562 -5.472656 2.875 -5.359375 C 2.78125 -5.242188 2.734375 -5.101562 2.734375 -4.9375 L 2.734375 -2.984375 C 2.734375 -2.816406 2.796875 -2.664062 2.921875 -2.53125 C 3.046875 -2.40625 3.203125 -2.34375 3.390625 -2.34375 C 3.554688 -2.34375 3.707031 -2.40625 3.84375 -2.53125 C 3.976562 -2.664062 4.046875 -2.816406 4.046875 -2.984375 C 4.046875 -3.085938 4.097656 -3.140625 4.203125 -3.140625 Z M 4.203125 -3.140625 "/></g></g></g><g fill="#f45d00" fill-opacity="1"><g transform="translate(47.084176, 14.425509)"><g><path d="M 6.640625 -7.921875 C 6.828125 -7.921875 6.988281 -7.851562 7.125 -7.71875 C 7.257812 -7.582031 7.328125 -7.421875 7.328125 -7.234375 L 7.328125 -5.875 C 7.328125 -5.6875 7.257812 -5.523438 7.125 -5.390625 C 6.988281 -5.253906 6.828125 -5.1875 6.640625 -5.1875 L 5.28125 -5.1875 C 5.226562 -5.1875 5.203125 -5.160156 5.203125 -5.109375 L 5.203125 -0.671875 C 5.203125 -0.484375 5.132812 -0.320312 5 -0.1875 C 4.863281 -0.0507812 4.695312 0.015625 4.5 0.015625 L 3.15625 0.015625 C 2.957031 0.015625 2.789062 -0.0507812 2.65625 -0.1875 C 2.519531 -0.320312 2.453125 -0.484375 2.453125 -0.671875 L 2.453125 -5.109375 C 2.453125 -5.160156 2.429688 -5.1875 2.390625 -5.1875 L 1.015625 -5.1875 C 0.835938 -5.1875 0.675781 -5.253906 0.53125 -5.390625 C 0.394531 -5.523438 0.328125 -5.6875 0.328125 -5.875 L 0.328125 -7.234375 C 0.328125 -7.421875 0.394531 -7.582031 0.53125 -7.71875 C 0.675781 -7.851562 0.835938 -7.921875 1.015625 -7.921875 Z M 6.640625 -7.921875 "/></g></g></g><path stroke-linecap="butt" transform="matrix(0.345834, 0, 0, 0.345834, 17.625737, 5.532046)" fill="none" stroke-linejoin="miter" d="M 11.372108 2.098599 C 12.501626 2.098599 13.552077 2.313208 14.512167 2.731129 C 15.472256 3.160346 16.319394 3.725104 17.03099 4.459291 C 17.742586 5.182182 18.307345 6.018025 18.713971 6.978114 C 19.109302 7.926909 19.312615 8.943475 19.312615 10.039107 L 19.312615 16.951753 C 19.312615 18.03609 19.109302 19.052655 18.713971 20.012745 C 18.307345 20.972835 17.742586 21.808678 17.03099 22.554159 C 16.319394 23.288345 15.472256 23.864399 14.512167 24.282321 C 13.552077 24.711537 12.501626 24.91485 11.372108 24.91485 L 3.6688 24.91485 C 3.070156 24.91485 2.584463 24.700242 2.189132 24.25973 C 1.793801 23.819218 1.601783 23.333526 1.601783 22.825243 L 1.601783 4.165616 C 1.601783 3.634743 1.793801 3.160346 2.189132 2.731129 C 2.584463 2.313208 3.070156 2.098599 3.6688 2.098599 Z M 12.320903 14.19573 L 12.320903 12.817719 C 12.320903 12.20778 12.128885 11.710792 11.733554 11.315461 C 11.338223 10.92013 10.85253 10.728112 10.253886 10.728112 L 8.88717 10.728112 C 8.785513 10.728112 8.695152 10.773293 8.604791 10.863654 C 8.525724 10.94272 8.480544 11.078263 8.480544 11.27028 L 8.480544 15.743169 C 8.480544 15.912597 8.525724 16.036844 8.604791 16.11591 C 8.695152 16.194976 8.785513 16.228862 8.88717 16.228862 L 10.253886 16.228862 C 10.85253 16.228862 11.338223 16.036844 11.733554 15.664103 C 12.128885 15.280067 12.320903 14.794375 12.320903 14.19573 Z M 23.006137 25.027802 C 22.452674 25.027802 21.978276 24.813194 21.57165 24.395272 C 21.176319 23.977351 20.973006 23.502954 20.973006 22.960785 L 20.973006 4.131731 C 20.973006 3.521791 21.176319 3.024804 21.57165 2.640768 C 21.978276 2.256732 22.452674 2.076009 23.006137 2.076009 L 26.564117 2.076009 C 27.174056 2.076009 27.671044 2.256732 28.05508 2.640768 C 28.439116 3.024804 28.631134 3.521791 28.631134 4.131731 L 28.631134 22.960785 C 28.631134 23.502954 28.439116 23.977351 28.05508 24.395272 C 27.671044 24.813194 27.174056 25.027802 26.564117 25.027802 Z M 48.341212 22.565454 C 48.499344 23.231869 48.375097 23.796628 47.991061 24.248435 C 47.59573 24.688947 47.121333 24.91485 46.567869 24.91485 L 41.925553 24.91485 C 41.439861 24.91485 40.942873 24.711537 40.412 24.316206 C 39.892422 23.90958 39.553567 23.390002 39.406729 22.734882 L 38.649953 19.244673 L 38.424049 18.069975 C 38.424049 17.968318 38.367573 17.923138 38.254622 17.923138 C 38.16426 17.923138 38.11908 17.979614 38.11908 18.092565 L 38.11908 22.881719 C 38.11908 23.107622 38.096489 23.322231 38.062604 23.514249 C 38.040013 23.706267 37.893176 23.943465 37.622092 24.225845 C 37.430074 24.451748 37.20417 24.632471 36.933086 24.745423 C 36.662002 24.858374 36.390918 24.91485 36.108539 24.91485 L 32.437607 24.91485 C 31.884144 24.91485 31.409746 24.722832 31.014415 24.327501 C 30.630379 23.93217 30.427066 23.469068 30.427066 22.938195 L 30.427066 4.685194 C 30.427066 3.860647 30.630379 3.228117 31.014415 2.787605 C 31.409746 2.347093 31.884144 2.12119 32.437607 2.12119 L 42.783986 2.098599 C 43.834437 2.098599 44.783232 2.392274 45.63037 2.968328 C 46.488803 3.555677 47.166514 4.380225 47.663501 5.441971 C 48.171784 6.503717 48.431573 7.768777 48.431573 9.237149 C 48.431573 10.479618 48.239555 11.57525 47.866814 12.51275 C 47.494074 13.461544 46.997086 14.308682 46.364556 15.054164 C 46.443623 15.167115 46.511394 15.347838 46.567869 15.607627 Z M 40.716969 9.982631 C 40.716969 9.508233 40.547542 9.101607 40.208687 8.762752 C 39.881127 8.435192 39.485796 8.265764 39.033989 8.265764 L 38.480525 8.265764 C 38.232031 8.265764 38.11908 8.390011 38.11908 8.638505 L 38.11908 11.699497 C 38.11908 11.947991 38.232031 12.072238 38.480525 12.072238 L 39.033989 12.072238 C 39.485796 12.072238 39.881127 11.914105 40.208687 11.57525 C 40.547542 11.236395 40.716969 10.841064 40.716969 10.377962 Z M 58.31485 8.288355 C 58.258374 8.288355 58.213193 8.32224 58.168013 8.378716 C 58.134127 8.435192 58.111537 8.480373 58.111537 8.525553 L 58.111537 10.411847 C 58.111537 10.524799 58.179308 10.581275 58.31485 10.581275 L 62.52795 10.581275 C 62.911986 10.581275 63.228251 10.716817 63.499335 10.987901 C 63.770419 11.24769 63.905961 11.57525 63.905961 11.959286 L 63.905961 15.088049 C 63.905961 15.472085 63.770419 15.78835 63.499335 16.059434 C 63.228251 16.319223 62.911986 16.454765 62.52795 16.454765 L 58.31485 16.454765 C 58.179308 16.454765 58.111537 16.522536 58.111537 16.658078 L 58.111537 18.487896 C 58.111537 18.623439 58.179308 18.69121 58.31485 18.69121 L 64.131864 18.69121 C 64.549786 18.69121 64.911231 18.849342 65.204906 19.154312 C 65.509876 19.459281 65.656713 19.820727 65.656713 20.238648 L 65.656713 23.457773 C 65.656713 23.875694 65.509876 24.225845 65.204906 24.519519 C 64.911231 24.801899 64.549786 24.948736 64.131864 24.948736 L 52.407474 24.948736 C 51.820125 24.948736 51.323138 24.722832 50.916511 24.271025 C 50.52118 23.819218 50.317867 23.175394 50.317867 22.339551 L 50.317867 3.679924 C 50.317867 3.352364 50.52118 3.013509 50.916511 2.640768 C 51.323138 2.279322 51.820125 2.098599 52.407474 2.098599 L 64.131864 2.098599 C 64.549786 2.098599 64.911231 2.245437 65.204906 2.527816 C 65.509876 2.821491 65.656713 3.171641 65.656713 3.589562 L 65.656713 6.797392 C 65.656713 7.204018 65.509876 7.554168 65.204906 7.847843 C 64.911231 8.141517 64.549786 8.288355 64.131864 8.288355 Z M 78.747819 15.912597 L 85.287725 15.912597 C 85.378086 15.912597 85.468448 15.957778 85.547514 16.048139 C 85.637875 16.127205 85.683056 16.217567 85.683056 16.319223 L 85.683056 16.658078 C 85.683056 17.877957 85.423267 19.01877 84.903689 20.069221 C 84.395406 21.119672 83.695105 22.045876 82.825377 22.836538 C 81.955649 23.6272 80.972968 24.248435 79.866041 24.688947 C 78.759114 25.118163 77.595712 25.344067 76.398423 25.344067 C 75.23502 25.344067 74.082913 25.118163 72.96469 24.688947 C 71.857763 24.248435 70.852493 23.6272 69.971469 22.836538 C 69.101741 22.045876 68.390145 21.119672 67.870567 20.069221 C 67.339694 19.01877 67.079905 17.877957 67.079905 16.658078 L 67.079905 10.174649 C 67.079905 8.999951 67.339694 7.893024 67.870567 6.865163 C 68.390145 5.848597 69.101741 4.956278 69.971469 4.176911 C 70.852493 3.397544 71.857763 2.7989 72.96469 2.358388 C 74.082913 1.917877 75.23502 1.703268 76.398423 1.703268 C 77.595712 1.703268 78.759114 1.917877 79.866041 2.358388 C 80.972968 2.7989 81.955649 3.397544 82.825377 4.176911 C 83.695105 4.956278 84.395406 5.848597 84.903689 6.865163 C 85.423267 7.893024 85.683056 8.999951 85.683056 10.174649 L 85.683056 10.694227 C 85.683056 10.818474 85.637875 10.92013 85.547514 11.010491 C 85.468448 11.089558 85.378086 11.134738 85.287725 11.134738 L 78.747819 11.134738 C 78.612277 11.134738 78.499325 11.089558 78.408964 10.987901 C 78.329898 10.89754 78.284717 10.784588 78.284717 10.671636 L 78.284717 10.524799 C 78.284717 10.26501 78.205651 9.993926 78.058814 9.722842 C 77.900681 9.451758 77.731254 9.25974 77.516645 9.124197 C 76.997067 8.819228 76.511375 8.717571 76.048273 8.819228 C 75.585171 8.920884 75.21243 9.146788 74.930051 9.496938 C 74.647671 9.835793 74.500834 10.24242 74.500834 10.694227 L 74.500834 16.375699 C 74.500834 16.850096 74.681557 17.279313 75.043002 17.652054 C 75.415743 18.024794 75.856255 18.205517 76.398423 18.205517 C 76.895411 18.205517 77.324627 18.024794 77.708663 17.652054 C 78.092699 17.279313 78.284717 16.850096 78.284717 16.375699 C 78.284717 16.070729 78.44285 15.912597 78.747819 15.912597 Z M 105.370544 2.076009 C 105.924007 2.076009 106.398404 2.268027 106.78244 2.663358 C 107.177771 3.047394 107.369789 3.521791 107.369789 4.075255 L 107.369789 8.005975 C 107.369789 8.536848 107.177771 9.011246 106.78244 9.406577 C 106.398404 9.813203 105.924007 10.016516 105.370544 10.016516 L 101.439823 10.016516 C 101.281691 10.016516 101.21392 10.072992 101.21392 10.208534 L 101.21392 23.051147 C 101.21392 23.58202 101.010607 24.056417 100.626571 24.451748 C 100.23124 24.858374 99.756842 25.050392 99.214674 25.050392 L 95.306544 25.050392 C 94.741785 25.050392 94.256093 24.858374 93.860762 24.451748 C 93.476726 24.056417 93.273413 23.58202 93.273413 23.051147 L 93.273413 10.208534 C 93.273413 10.072992 93.205642 10.016516 93.070099 10.016516 L 89.116789 10.016516 C 88.585916 10.016516 88.111518 9.813203 87.716187 9.406577 C 87.309561 9.011246 87.106248 8.536848 87.106248 8.005975 L 87.106248 4.075255 C 87.106248 3.521791 87.309561 3.047394 87.716187 2.663358 C 88.111518 2.268027 88.585916 2.076009 89.116789 2.076009 Z M 105.370544 2.076009 " stroke="#833f00" stroke-width="0.465769" stroke-opacity="1" stroke-miterlimit="4"/><g clip-path="url(#372e2a4552)"><g clip-path="url(#8a0516eb2f)"><path fill="#ff914d" d="M 24.902344 21.847656 L 29.421875 21.847656 L 29.421875 24.105469 L 24.902344 24.105469 Z M 24.902344 21.847656 " fill-opacity="1" fill-rule="nonzero"/></g></g><g clip-path="url(#be179629a4)"><g clip-path="url(#5122eef135)"><path fill="#f45d00" d="M 17.625 15.972656 L 22.144531 15.972656 L 22.144531 18.230469 L 17.625 18.230469 Z M 17.625 15.972656 " fill-opacity="1" fill-rule="nonzero"/></g></g><g clip-path="url(#1c18d31440)"><g clip-path="url(#dcd1cbf5e2)"><path fill="#f45d00" d="M 34.3125 0.464844 L 38.628906 0.464844 L 38.628906 2.625 L 34.3125 2.625 Z M 34.3125 0.464844 " fill-opacity="1" fill-rule="nonzero"/></g></g><g clip-path="url(#a79d598d7e)"><g clip-path="url(#fd2ade4ef9)"><path fill="#f45d00" d="M 32.15625 0.464844 L 36.472656 0.464844 L 36.472656 2.625 L 32.15625 2.625 Z M 32.15625 0.464844 " fill-opacity="1" fill-rule="nonzero"/></g></g><g clip-path="url(#84480af7c7)"><g clip-path="url(#c25b52bc23)"><path fill="#ff914d" d="M 25.105469 0.464844 L 29.421875 0.464844 L 29.421875 2.625 L 25.105469 2.625 Z M 25.105469 0.464844 " fill-opacity="1" fill-rule="nonzero"/></g></g></svg>